<?xml version="1.0" encoding="utf-8"?>
<!-- Generator: Adobe Illustrator 17.0.0, SVG Export Plug-In . SVG Version: 6.00 Build 0)  -->
<!DOCTYPE svg PUBLIC "-//W3C//DTD SVG 1.1//EN" "http://www.w3.org/Graphics/SVG/1.1/DTD/svg11.dtd">
<svg version="1.1" id="图层_1" xmlns="http://www.w3.org/2000/svg" xmlns:xlink="http://www.w3.org/1999/xlink" x="0px" y="0px" viewBox="-0.5 0.5 20 20" enable-background="new -0.5 0.5 20 20" xml:space="preserve">
<g>
	<g>
		<path d="M15.525,7.039l-0.568,10.756C14.936,18.19,14.61,18.5,14.214,18.5H4.783c-0.396,0-0.722-0.31-0.743-0.705L3.472,7.039
			c-0.022-0.41,0.294-0.761,0.704-0.782c0.412-0.02,0.761,0.294,0.782,0.704l0.531,10.051h8.019l0.531-10.051
			c0.022-0.41,0.374-0.722,0.782-0.704C15.231,6.279,15.546,6.629,15.525,7.039L15.525,7.039z M17.497,4.549
			c0,0.411-0.333,0.744-0.744,0.744H2.244C1.833,5.293,1.5,4.96,1.5,4.549c0-0.411,0.333-0.744,0.744-0.744h4.092V2.131
			c0-0.36,0.24-0.558,0.599-0.558h5.125c0.36,0,0.6,0.198,0.6,0.558v1.674h4.092C17.164,3.805,17.497,4.138,17.497,4.549
			L17.497,4.549z M7.638,3.805h3.72v-0.93h-3.72V3.805z M7.95,15.896h0.016c0.36,0,0.644-0.346,0.635-0.705L8.412,7.148
			c-0.008-0.36-0.303-0.653-0.666-0.645C7.387,6.512,7.102,6.805,7.111,7.164L7.3,15.224C7.308,15.578,7.598,15.896,7.95,15.896
			L7.95,15.896z M11.018,15.896c0.352,0,0.642-0.299,0.651-0.653l0.189-8.031c0.008-0.36-0.276-0.662-0.636-0.671
			c-0.365-0.005-0.658,0.274-0.666,0.633l-0.189,8.039c-0.008,0.36,0.276,0.683,0.636,0.683H11.018z M11.018,15.896"/>
	</g>
</g>
</svg>
